<svg xmlns="http://www.w3.org/2000/svg" width="42" height="71" fill="none"><path fill="#455273" fill-rule="evenodd" d="M17.396 17.812c-.003-.49-.01-.56.035-.602.044-.042.14-.055.228-.026.089.03.171.1.224.356.052.256.075.697.075 1.063.001.365-.02.655-.026.852-.007.196-.001.298-.088.402-.087.104-.266.21-.355.254-.09.043-.09.024-.09-.44 0-.463 0-1.37-.003-1.86Zm3.254 20.514-1.593 2.38h1.593v-2.38Zm16.005-1.104c-.077.27-.218.521-.638 1.282a500.199 500.199 0 0 0-1.955 3.583c-.839 1.552-1.82 3.385-2.6 4.84a181.486 181.486 0 0 1-1.984 3.644 88.693 88.693 0 0 1-1.985 3.343 56.864 56.864 0 0 1-2.108 3.157 40.843 40.843 0 0 1-2.068 2.642 16.046 16.046 0 0 1-1.358 1.406c-.36.333-.668.603-1.105.739a2.197 2.197 0 0 1-1.506-.09c-.502-.226-.94-.676-1.506-1.303-.567-.626-1.265-1.429-1.843-2.238-.58-.808-1.04-1.623-1.53-2.462-.413-.705-.846-1.43-1.395-2.575l-.141-.012c-1.269-.104-1.963-.16-2.86-.239-.899-.078-2-.176-2.563-.22-.562-.043-.586-.031-.722-.51-.136-.48-.384-1.45-.554-1.99-.17-.54-.264-.647-.016-.713.248-.066.837-.09 1.504-.167.667-.078 1.411-.21 2.374-.42.354-.077.708-.159 1.06-.246-.225-.562-.436-1.098-.621-1.566-.609-1.54-.928-2.342-1.24-3.283-.314-.94-.62-2.019-.833-2.857a20.283 20.283 0 0 1-.438-2.151c-.106-.713-.2-1.54-.208-2.402-.008-.861.071-1.758.254-2.572.184-.815.47-1.548.756-2.059.285-.51.569-.798.71-.942.142-.143.142-.143.142-2.714 0-2.57 0-7.71.012-10.28.012-2.571.036-2.571.095-2.643.059-.072.153-.216.342-.407.19-.192.473-.432.68-.63.207-.197.336-.353.425-.497.088-.143.136-.275.106-.431-.03-.156-.135-.335-.082-.527.053-.192.266-.396.703-.701a23.643 23.643 0 0 1 1.801-1.109 27.23 27.23 0 0 1 2.262-1.142 31.491 31.491 0 0 1 2.424-.958 23.623 23.623 0 0 1 1.592-.492c.297-.08.32-.08.332 1.442.012 1.522.012 4.566.006 6.087-.006 1.522-.018 1.522.137 1.426.154-.096.475-.288.824-.48.348-.19.724-.383 1.184-.61.46-.228 1.003-.491 1.777-.797a32.534 32.534 0 0 1 2.794-.947 41.923 41.923 0 0 1 2.924-.719c.88-.185 1.613-.317 2.106-.364.494-.046.75-.007.885 0 .136.005.153-.022.16 3.637.01 3.66.01 11.005-.009 14.69-.017 3.684-.053 3.708.053 3.72.107.012.355.012.674.006.319-.006.709-.018 1.057-.018.349 0 .656.012.934.09.278.077.525.221.667.383.142.162.177.342.19.575.01.234 0 .521-.078.79ZM11.44 47.136a50 50 0 0 0 .536 1.322l.224-.064a49.97 49.97 0 0 1-.545-1.344c-.702-1.812-1.12-3.287-1.49-4.644-.364-1.336-.608-2.283-.779-3.166-.158-.82-.266-1.65-.321-2.484-.05-.747-.047-1.327.011-1.879a6.47 6.47 0 0 1 .346-1.559c.144-.384.333-.734.614-1.136.228-.326.465-.614.579-.753.145-.177.145-.177.145-2.783 0-2.497 0-7.693.006-10.257.005-2.322.016-2.52.075-2.593l.055-.069c.085-.106.213-.267.342-.393.096-.095.199-.175.308-.26.072-.058.149-.118.23-.187.207-.177.46-.423.58-.761.076-.217.093-.467.107-.668.007-.097.014-.19.026-.257.027-.154.075-.181.233-.271l.018-.01c.247-.143.49-.29.731-.442l.12-.076c.265-.167.564-.356.965-.572.41-.222.98-.5 1.605-.782a19.758 19.758 0 0 1 1.54-.631 24.278 24.278 0 0 1 1.412-.448c.04.103.038.536.035 1.226l-.001.19c-.003.787-.004 1.965-.006 3.142-.001 1.179-.003 2.357-.006 3.142v.27c-.005 1.05-.006 1.212.081 1.3.028.03.066.045.107.045.056 0 .102-.03.153-.063l.333-.21.608-.386.068-.043c.37-.237.753-.483 1.52-.886.503-.265 1.842-.946 3.412-1.566 1.304-.516 2.76-.986 3.896-1.259a14.002 14.002 0 0 1 2.224-.36l.39-.033c.008.25.008 1.086.008 3.425 0 3.46 0 10.658-.017 15.056-.003.948-.01 1.896-.018 2.844l.231-.036c.008-.8.013-1.723.018-2.808.017-4.397.017-11.596.017-15.057 0-1.742 0-2.616-.003-3.072-.005-.538-.005-.595-.14-.595l-.507.043c-.401.035-1.15.1-2.256.365-1.145.275-2.613.749-3.927 1.268a36.371 36.371 0 0 0-3.434 1.576c-.776.409-1.18.668-1.538.897l-.067.043a98.28 98.28 0 0 1-.607.384l-.312.198c-.014-.156-.012-.513-.01-1.069v-.27c.004-.786.005-1.964.007-3.142.001-1.178.003-2.356.006-3.143v-.189c.005-1.068.006-1.29-.107-1.405a.198.198 0 0 0-.144-.058c-.049 0-.098.014-.15.029-.118.034-.74.214-1.354.433-.48.172-.945.363-1.556.64-.629.283-1.204.564-1.62.788-.408.22-.71.411-.978.58l-.12.076c-.238.15-.479.296-.722.436l-.018.01c-.168.096-.301.172-.348.434-.014.08-.021.178-.028.282-.014.197-.03.419-.095.606-.1.285-.326.503-.51.66a7.39 7.39 0 0 1-.224.18c-.114.09-.221.175-.326.278-.14.137-.273.304-.362.415l-.054.068c-.115.14-.121.148-.127 2.74-.006 2.564-.006 7.76-.006 10.257 0 2.451-.003 2.525-.092 2.633-.115.141-.357.435-.59.769-.292.418-.49.784-.64 1.188a6.71 6.71 0 0 0-.36 1.617c-.06.566-.063 1.158-.013 1.92.057.843.165 1.682.326 2.512.171.89.417 1.842.782 3.184.371 1.363.792 2.845 1.498 4.668Zm18.077-24.27c0 .28 0 .323-.268.502-.27.18-.806.494-1.085.688-.278.194-.297.267-.306.376-.01.11-.01.257.054.348.065.091.195.127.6-.055.404-.181 1.083-.579 1.423-.81.34-.232.34-.299.34-1.689 0-1.39 0-4.104-.004-5.475-.004-1.371-.012-1.4-.157-1.376-.145.024-.427.1-.562.14-.136.037-.124.037-.119.855.006.817.006 2.453.001 3.275-.005.822-.014.832-.066.864a1.82 1.82 0 0 1-.245.13.841.841 0 0 1-.272.071c-.066.001-.093-.026-.106-.848-.013-.823-.013-2.44-.03-3.254-.018-.814-.053-.823-.165-.802-.113.02-.302.073-.406.122-.103.05-.121.098-.129.158-.007.06-.005.132-.003.94l.001 3.272c0 .916 0 1.204.055 1.38.054.175.164.24.36.188.197-.05.48-.217.646-.324.166-.107.214-.156.252-.172.039-.016.067 0 .097.037.03.036.063.092.079.378.015.286.015.801.015 1.08Zm-2.976-3.636c.002-1.274.006-1.286.15-1.376.144-.09.43-.257.576-.34.146-.084.152-.084.154-.297.003-.213.003-.638.003-.845 0-.206 0-.195-.47.043-.472.237-1.414.7-1.893.934-.48.235-.495.243-.483.454.012.21.054.624.09.82.034.196.063.175.19.099.126-.076.35-.207.536-.293.186-.086.335-.127.411-.111.077.015.08.088.087 1.378.008 1.29.019 3.798.023 5.045.004 1.247 0 1.233.108 1.161.109-.072.33-.2.435-.266.104-.064.093-.064.087-1.331-.005-1.267-.005-3.802-.004-5.075Zm-4.024 21.713v-.236h-1.634v-3.264l-2.13 3.264h-.805l-4.407 4.882-.008.062v1.919h.234v-1.827l4.282-4.8h4.468Zm-2.334 1.42v1.065h.584v-1.065h-.584Zm-1.633 0v1.065h.7v-1.065h-.7Zm-1.4.71v1.065h.35v-1.065h-.35Zm-1.167 1.42v.829h.35v-.829h-.35Zm-1.283 1.42v.829h.35v-.829h-.35ZM11.532 23.13c-.004 1.48-.011 1.506.345 1.322a35.426 35.426 0 0 0 1.447-.8c.372-.222.399-.273.357-.39a1.213 1.213 0 0 0-.235-.389c-.086-.083-.15-.063-.314.02-.163.08-.425.224-.566.302-.141.078-.162.089-.173-1.055-.01-1.144-.01-3.443-.015-4.609-.004-1.166-.013-1.197.121-1.29.135-.092.413-.244.558-.33.145-.086.157-.106.163-.25.006-.143.006-.41-.015-.546-.022-.137-.066-.142-.11-.148-.523.288-1.047.575-1.306.712-.26.136-.257.123-.255 1.582.002 1.459.002 4.39-.002 5.87Zm3.917-7.7c-.003.924-.003 2.74-.003 3.966 0 1.225 0 1.86-.003 2.18-.003.32-.009.327.14.24l.603-.358c.153-.09.155-.09.156-.096V20a908.64 908.64 0 0 0-.019-5.374c-.012-1.347-.033-1.361-.159-1.362-.126 0-.356.012-.759.234-.403.223-.978.656-1.263.878-.284.223-.278.235-.274 1.631.003 1.397.003 4.178.005 5.571.003 1.393.008 1.398.155 1.313.147-.084.436-.258.585-.366.15-.107.16-.148.166-1.395.005-1.247.005-3.701.005-4.943 0-1.243 0-1.274.113-1.363.113-.09.34-.237.45-.295.11-.057.104-.025.102.9Zm1.795.536c.004-.194.034-.345.2-.465.164-.12.464-.209.654-.425s.269-.56.05-.57c-.219-.01-.736.315-1.004.53-.268.215-.287.32-.297 1.276-.01.956.02 2.543.032 3.682.011 1.026-.055 1.005.15.918.022-.01.047-.02.077-.03.298-.1.69-.319.943-.482.253-.163.404-.29.449-.875.044-.584-.018-1.627-.115-2.2-.098-.573-.231-.675-.378-.72a1.068 1.068 0 0 0-.43-.014c-.121.014-.205.028-.258-.083-.054-.111-.076-.348-.073-.542Zm1.297 6.183c.16-.095.488-.287.646-.391.159-.104.149-.121.144-.277-.005-.156-.005-.451-.016-.64-.01-.19-.032-.273-.315-.156-.283.117-.827.436-1.102.598-.274.161-.28.166-.282 1.51-.003 1.345-.003 4.03-.003 5.375 0 1.345 0 1.35.128 1.279.128-.073.385-.223.515-.294.13-.072.133-.066.135-1.204.002-1.138.002-3.421-.001-4.562-.003-1.142-.01-1.142.151-1.238Zm4.43.576c.222-.63.281-.623.31-.59.03.033.03.092.03.928 0 .836 0 2.448.005 3.257.006.81.015.816.157.74.142-.077.411-.236.547-.309.136-.072.13-.057.13-1.53v-5.905c0-1.474.006-1.462-.056-1.456-.062.006-.18.006-.292.057-.112.05-.213.152-.496 1.087-.284.933-.75 2.7-.992 3.58-.243.881-.26.876-.296.874-.035-.003-.089-.003-.33-.602-.243-.599-.674-1.797-.895-2.396-.222-.6-.234-.6-.35-.536a7.445 7.445 0 0 0-.463.275c-.13.087-.171.135-.192 1.57-.02 1.435-.02 4.257-.02 5.674 0 1.417 0 1.429.12 1.364.12-.064.36-.205.478-.277.118-.071.114-.074.112-1.01-.003-.936-.003-2.806.017-3.752.02-.946.058-.969.095-.998.036-.029.071-.064.303.454.231.518.66 1.588.875 2.123.214.535.214.535.406-.097.193-.632.576-1.896.798-2.525Zm3.73 30.407a3.553 3.553 0 0 1-.34.113 81.84 81.84 0 0 1-.586.939c-.856 1.351-1.597 2.426-2.333 3.382-.605.786-1.162 1.435-1.656 1.93-.431.432-.794.726-1.108.897-.298.163-.504.196-.758.123-.227-.066-.531-.228-1.206-.957a29.23 29.23 0 0 1-2.34-2.952c-.651-.945-1.19-1.875-1.905-3.303l-.27-.021c.753 1.51 1.309 2.475 1.986 3.458a29.486 29.486 0 0 0 2.361 2.979c.673.727 1.01.934 1.31 1.02.099.03.2.045.303.046.196 0 .396-.06.629-.187.334-.182.713-.488 1.16-.936.502-.502 1.066-1.159 1.676-1.953.74-.962 1.485-2.042 2.345-3.4.247-.39.491-.783.732-1.178Zm4.347-7.267c-.003-.084-.056-.084-.198.087-.142.17-.372.512-.768 1.108-.396.596-.957 1.447-1.427 2.076-.47.629-.848 1.037-1.234 1.378a5.188 5.188 0 0 1-1.179.806c-.396.189-.791.29-1.482.38a31.59 31.59 0 0 1-2.75.207c-1.072.039-2.23.039-4.49.012-2.259-.027-5.62-.08-7.392-.129-1.772-.048-1.955-.09-2.058-.135-.104-.045-.127-.093-.15-.314a21.667 21.667 0 0 1-.06-.815c-.012-.198-.012-.198.227-.222.24-.024.718-.071 1.267-.152.55-.081 1.17-.195 1.867-.342.697-.147 1.47-.326 2.3-.581.83-.255 1.717-.584 2.423-.86.705-.276 1.231-.497 1.79-.803.559-.306 1.15-.697 1.673-1.09a16.19 16.19 0 0 0 1.387-1.172c.41-.386.776-.763 1.198-1.24.423-.476.901-1.051 1.394-1.656.494-.605 1.002-1.24 1.518-1.789a8.2 8.2 0 0 1 1.764-1.45c.72-.44 1.636-.86 2.33-1.084a5.537 5.537 0 0 1 1.58-.275c.413-.021.768-.033 1.087.032.319.066.602.21.78.423.177.213.248.494.065 1.03-.184.538-.62 1.33-.995 1.969s-.688 1.125-1.04 1.637c-.35.511-.74 1.047-1.107 1.559-.367.51-.71.997-1.105 1.476-.396.48-.845.953-1.288 1.412-.443.458-.88.901-1.27 1.26-.39.36-.732.636-1.051.879-.32.242-.615.452-.875.614-.26.161-.484.275-.596.371-.113.096-.113.174.085.219.198.045.594.057.934.042.34-.015.623-.057 1.063-.216a9.333 9.333 0 0 0 1.456-.686c.42-.252.662-.48.977-.8.317-.32.706-.734 1.07-1.204.363-.47.7-.998 1.022-1.543a31.43 31.43 0 0 0 .936-1.71c.307-.602.614-1.244.969-2.007.354-.764.755-1.651 1.039-2.325.284-.674.45-1.135.709-1.731.26-.597.614-1.328.789-1.732.174-.404.168-.482-.302-.497-.47-.015-1.402.032-2.141.139-.739.106-1.282.27-1.899.483-.617.213-1.306.474-1.998.811-.69.337-1.383.75-1.87 1.071-.488.32-.772.548-1.073.8-.3.252-.618.527-.934.839-.317.311-.63.659-.917 1-.287.342-.547.677-.854 1.082-.308.404-.662.877-1.096 1.369a14.688 14.688 0 0 1-1.498 1.465c-.549.464-1.134.883-1.784 1.273-.65.39-1.364.749-2.067 1.07-.703.32-1.394.601-2.2.865-.807.264-1.728.51-2.422.683a20.207 20.207 0 0 1-3.317.572c-.46.039-.768.039-.924.063-.157.024-.163.072-.092.476.07.405.219 1.165.292 1.546.074.38.074.38.884.446.809.066 2.427.198 3.795.288 1.367.09 2.484.138 3.438.191.954.054 1.745.114 2.796.183 1.052.069 2.363.146 3.409.159 1.046.013 1.826-.038 2.489-.136a9.584 9.584 0 0 0 1.684-.402 5.25 5.25 0 0 0 1.36-.66 6.561 6.561 0 0 0 1.55-1.474c.513-.677.985-1.558 1.381-2.292.396-.733.715-1.32.898-1.698.183-.378.23-.545.228-.63Zm-2.864-5.378c-.01.292-.018.585-.024.878-.009.419-.005.6-.033.728-.028.127-.088.2-.174.241a.56.56 0 0 1-.314.033.719.719 0 0 1-.332-.133c-.099-.075-.179-.183-.266-.284a1.195 1.195 0 0 0-.265-.246c-.084-.049-.157-.05-.195.002-.039.052-.043.158.001.286.044.128.136.278.254.423.118.145.263.286.492.427.23.14.545.28.83.33.284.052.54.013.79-.095a2.672 2.672 0 0 0 1.058-.864.79.79 0 0 0 .141-.269c.021-.083.022-.174-.032-.21-.053-.035-.16-.014-.273.066-.113.08-.23.22-.357.321a1.16 1.16 0 0 1-.38.2.745.745 0 0 1-.3.036c-.084-.01-.159-.036-.203-.087-.044-.05-.059-.126-.074-.547-.01-.316-.022-.827-.03-1.235.125 0 .244 0 .337-.003.262-.006.33-.02.377-.052a.23.23 0 0 0 .088-.127c.015-.048.018-.096.021-.121.003-.026.006-.029-.317-.03l-.514-.002v-.024c-.002-.095-.005-.19-.01-.284a.28.28 0 0 0 .148-.248.284.284 0 0 0-.283-.285.284.284 0 0 0-.137.533l-.005.118-.007.19h-.49c-.325.002-.325.003-.325.029 0 .025 0 .075.014.122a.214.214 0 0 0 .09.123c.046.03.113.044.373.053.09.003.205.005.326.007Zm7.555-3.967c-.087-.013-.22.086-.341.202-.122.115-.233.246-.448.578-.214.332-.531.865-.82 1.433-.288.568-.548 1.17-.891 1.975-.343.804-.768 1.81-1.108 2.583-.34.772-.596 1.31-.688 1.599-.091.289-.019.33.156.06.175-.268.453-.847.771-1.468.32-.622.68-1.287 1.037-1.96.358-.675.712-1.358 1.04-1.948.328-.59.63-1.087.868-1.537.24-.45.417-.85.485-1.114.068-.264.026-.39-.06-.403Z" clip-rule="evenodd"/></svg>